<?xml version="1.0" encoding="UTF-8"?>
<!DOCTYPE svg PUBLIC "-//W3C//DTD SVG 1.1//EN" "http://www.w3.org/Graphics/SVG/1.1/DTD/svg11.dtd">
<!-- Creator: CorelDRAW (Versión OEM) -->
<svg xmlns="http://www.w3.org/2000/svg" xml:space="preserve" width="2.7094mm" height="2.7094mm" version="1.1" style="shape-rendering:geometricPrecision; text-rendering:geometricPrecision; image-rendering:optimizeQuality; fill-rule:evenodd; clip-rule:evenodd"
viewBox="0 0 0.48 0.48"
 xmlns:xlink="http://www.w3.org/1999/xlink"
 xmlns:xodm="http://www.corel.com/coreldraw/odm/2003">
 <defs>
  <style type="text/css">
   <![CDATA[
    .fil1 {fill:white}
    .fil0 {fill:url(#id0)}
   ]]>
  </style>
  <radialGradient id="id0" gradientUnits="userSpaceOnUse" gradientTransform="matrix(-1.04861 0.948806 -0.85931 -0.896178 1 0)" cx="0.24" cy="0.23" r="16.33" fx="0.24" fy="0.23">
   <stop offset="0" style="stop-opacity:1; stop-color:blue"/>
   <stop offset="1" style="stop-opacity:1; stop-color:#0000DC"/>
  </radialGradient>
 </defs>
 <g id="Capa_x0020_1">
  <metadata id="CorelCorpID_0Corel-Layer"/>
  <path class="fil0" d="M0.11 0c0.02,-0 0.03,-0 0.05,-0 0.02,0 0.04,0 0.05,0 0.03,0 0.07,-0 0.1,-0 0.04,0 0.07,-0 0.1,0.02 0.01,0.01 0.01,0.01 0.02,0.02 0.01,0.01 0.01,0.01 0.02,0.02 0.01,0.02 0.02,0.03 0.02,0.05 0,0.01 0,0.03 0,0.04 0,0.02 0,0.04 0,0.07 -0,0.04 -0,0.07 -0,0.11 -0,0.04 0,0.07 -0.02,0.11 -0.02,0.03 -0.05,0.05 -0.09,0.05 -0.02,0 -0.04,0 -0.05,0l-0.16 0c-0.04,0 -0.07,0 -0.1,-0.02 -0.03,-0.02 -0.05,-0.05 -0.05,-0.09 -0,-0.01 -0,-0.03 -0,-0.04 -0,-0.02 -0,-0.05 -0,-0.07 0,-0.04 0,-0.07 0,-0.11 -0,-0.04 -0,-0.07 0.02,-0.11 0.02,-0.03 0.05,-0.05 0.09,-0.05z"/>
  <path class="fil1" d="M0.06 0.31c0,0.01 0,0.01 0.01,0.01 0.01,0 0.01,-0 0.01,-0.01l0 0 0 -0.17 0.31 0 0.01 0 0 0c0,-0 0.01,-0 0.01,-0.01 -0,-0 -0,-0 -0,-0 -0,-0.04 -0.04,-0.07 -0.08,-0.07l-0.2 0c-0.04,0 -0.08,0.03 -0.08,0.08l0 0.17zm0.34 -0.15c0.01,0 0.01,0 0.01,0.01l0 0 0 0.16c0,0.04 -0.03,0.08 -0.08,0.08l-0.2 0c-0.03,0 -0.06,-0.02 -0.07,-0.05 -0,-0 -0,-0 -0,-0 -0,-0 -0,-0 -0,-0 0,-0.01 0,-0.01 0.01,-0.01 0,0 0,0 0,0l0.01 0 0.08 0c0.02,-0 0.04,-0 0.06,0l0.02 0 0 0 0 0c0.03,0 0.05,-0 0.05,-0.03 -0,-0.01 -0.01,-0.02 -0.02,-0.02 -0.03,-0 -0.07,-0 -0.09,-0.03 -0.02,-0.02 -0.02,-0.07 0.02,-0.09 0.01,-0 0.02,-0.01 0.03,-0.01 0.01,-0 0.04,-0 0.05,0 0,0 0.01,0 0.01,0.01 0,0.01 -0,0.01 -0.01,0.01 -0,0 -0,-0 -0,-0 -0,-0 -0.01,-0 -0.01,-0 -0.01,-0 -0.06,0 -0.06,0.02 -0,0.01 0,0.01 0.01,0.01 0.03,0.02 0.14,-0.01 0.13,0.07 -0,0.02 -0.01,0.04 -0.03,0.05 -0.02,0.01 -0.04,0.02 -0.07,0.02 -0,-0 -0.01,-0 -0.01,-0l-0.15 0 -0 0 -0 -0 -0.01 0c0.01,0.01 0.03,0.02 0.05,0.02l0.2 0c0.03,0 0.06,-0.03 0.06,-0.06l0 -0.16c0,-0.01 0,-0.01 0.01,-0.01zm-0.21 0.07c0.01,0.01 0.01,0.01 0.02,0.01 0.02,0.01 0.05,0.01 0.08,0.01 0.02,0 0.03,0.01 0.04,0.02 0.01,0.02 0,0.04 -0.01,0.05 0,-0.02 -0.01,-0.03 -0.02,-0.03 -0.01,-0.01 -0.03,-0.01 -0.05,-0.01 -0.01,-0 -0.03,-0 -0.04,-0.01 -0.01,-0.01 -0.02,-0.02 -0.02,-0.04zm-0.11 -0.1c0.01,-0.03 0.03,-0.05 0.06,-0.05l0.2 0c0.03,0 0.05,0.02 0.06,0.05 0,0 0,0 -0,0l-0.31 0z"/>
 </g>
</svg>
